# xmcd
#
# Track frame offsets:
#	150
#	17163
#	41726
#	60986
#	76352
#	99943
#	116502
#	133060
#	152298
#	173539
#	192376
#	213821
#	229511
#	252422
#
# Disc length: 3549 seconds
#
# Revision: 2
# Processed by: cddbd v1.5.1PL2 Copyright (c) Steve Scherf et al.
# Submitted via: audiograbber 1.82.02
#
DISCID=a70ddb0e
DTITLE=Black Sorrows Unplugged - One Mo" Time
DYEAR=2004
DGENRE=Blues
TTITLE0=Harley and Rose
TTITLE1=The Chosen Ones
TTITLE2=Dear Children
TTITLE3=Daughters Of Glory
TTITLE4=Aint Love The Strangest Thing
TTITLE5=Snake Skin Shoes
TTITLE6=Brown Eyed Girl
TTITLE7=That's What I'd Give
TTITLE8=Hold On To Me
TTITLE9=Mystified
TTITLE10=Lucky Charm
TTITLE11=Country Girls
TTITLE12=Better Times
TTITLE13=Come On Come On
EXTD=YEAR: 2004
EXTT0=
EXTT1=
EXTT2=
EXTT3=
EXTT4=
EXTT5=
EXTT6=
EXTT7=
EXTT8=
EXTT9=
EXTT10=
EXTT11=
EXTT12=
EXTT13=
PLAYORDER=
